<svg xmlns="http://www.w3.org/2000/svg" id="ac-icon-store" viewBox="0 0 16 16"><path fill-rule="evenodd" clip-rule="evenodd" d="M3.8927 2L3.0881 3H12.6444L11.6789 2H3.8927ZM2.59715 0.419764C2.8107 0.154354 3.133 0 3.47366 0H12.0504C12.3556 0 12.6477 0.12401 12.8597 0.343581L15.5149 3.09358C15.5515 3.13154 15.5848 3.17086 15.6148 3.21127C15.8493 3.39428 16 3.67954 16 4V7C16 7.54597 15.8052 8.29461 15.2433 8.91896C15.1675 9.00321 15.0864 9.08364 15 9.15984V14.875C15 15.4963 14.4963 16 13.875 16H2.125C1.50368 16 1 15.4963 1 14.875V9.15984C0.913617 9.08364 0.832527 9.00321 0.756706 8.91896C0.194786 8.29461 0 7.54597 0 7V4C0 3.71773 0.11695 3.46278 0.305038 3.28095C0.328875 3.24314 0.355336 3.20602 0.384504 3.16976L2.59715 0.419764ZM3 9.97578V14H7L7 9.8421C6.58199 9.70124 6.23205 9.47552 5.94951 9.20339C5.36604 9.69539 4.55188 10 3.5 10C3.32691 10 3.16025 9.99175 3 9.97578ZM13 9.97578V14H9V9.8421C9.43066 9.69698 9.78907 9.46177 10.076 9.17855C10.6378 9.65923 11.4344 10 12.5 10C12.6731 10 12.8397 9.99175 13 9.97578ZM8.7625 7.65C8.62061 7.83918 8.40603 8 8 8C7.59397 8 7.37939 7.83918 7.2375 7.65C7.06374 7.41832 7 7.13232 7 7C7 6.44772 6.55228 6 6 6C5.44772 6 5 6.44772 5 7C5 7.1207 4.94479 7.37206 4.75671 7.58104C4.59745 7.75799 4.25802 8 3.5 8C2.74198 8 2.40255 7.75799 2.24329 7.58104C2.05521 7.37206 2 7.1207 2 7V5H14V7C14 7.1207 13.9448 7.37206 13.7567 7.58104C13.5974 7.75799 13.258 8 12.5 8C11.828 8 11.4715 7.77031 11.2786 7.56509C11.054 7.32611 11 7.06835 11 7C11 6.44772 10.5523 6 10 6C9.44772 6 9 6.44772 9 7C9 7.13232 8.93626 7.41832 8.7625 7.65ZM10.25 11C10.1119 11 10 11.1119 10 11.25V12.75C10 12.8881 10.1119 13 10.25 13H11.75C11.8881 13 12 12.8881 12 12.75V11.25C12 11.1119 11.8881 11 11.75 11H10.25Z" fill="#707070"></path></svg>