<?xml version="1.0" encoding="UTF-8"?>
<!DOCTYPE svg PUBLIC "-//W3C//DTD SVG 1.1//EN" "http://www.w3.org/Graphics/SVG/1.1/DTD/svg11.dtd">
<svg xmlns="http://www.w3.org/2000/svg" version="1.1" width="730px" height="350px" style="shape-rendering:geometricPrecision; text-rendering:geometricPrecision; image-rendering:optimizeQuality; fill-rule:evenodd; clip-rule:evenodd" xmlns:xlink="http://www.w3.org/1999/xlink">
<g><path style="opacity:0.996" fill="#0166ff" d="M 729.5,173.5 C 729.5,174.5 729.5,175.5 729.5,176.5C 725.806,245.745 693.806,297.245 633.5,331C 613.422,340.753 592.422,346.92 570.5,349.5C 433.167,349.5 295.833,349.5 158.5,349.5C 82.5793,338.754 32.0793,297.087 7,224.5C -10.6622,153.623 6.83776,93.1232 59.5,43C 87.3276,18.9273 119.661,4.92728 156.5,1C 295.167,0.333333 433.833,0.333333 572.5,1C 631.789,8.87211 676.622,38.3721 707,89.5C 721.09,115.867 728.59,143.867 729.5,173.5 Z"/></g>
<g><path style="opacity:1" fill="#fefeff" d="M 159.5,30.5 C 241.833,30.5 324.167,30.5 406.5,30.5C 380.706,126.802 355.04,223.135 329.5,319.5C 273.832,319.667 218.166,319.5 162.5,319C 97.4034,309.899 54.9034,274.066 35,211.5C 21.591,147.373 40.7577,95.54 92.5,56C 112.918,42.2529 135.251,33.7529 159.5,30.5 Z"/></g>
<g><path style="opacity:1" fill="#fcfdff" d="M 460.5,95.5 C 465.412,95.0631 470.078,95.8964 474.5,98C 493.014,116.681 511.681,135.181 530.5,153.5C 549.379,133.454 569.046,114.287 589.5,96C 595.926,94.35 601.426,95.85 606,100.5C 610.201,106.257 610.535,112.257 607,118.5C 588.862,137.638 570.362,156.472 551.5,175C 570,193.5 588.5,212 607,230.5C 611.413,239.245 609.913,246.745 602.5,253C 595.492,255.737 589.159,254.737 583.5,250C 565.626,232.293 547.959,214.459 530.5,196.5C 512.374,215.126 494.041,233.626 475.5,252C 464.657,258.332 456.491,255.832 451,244.5C 449.685,238.796 451.018,233.796 455,229.5C 473.208,211.626 491.041,193.459 508.5,175C 490.375,155.874 471.875,137.041 453,118.5C 448.414,108.425 450.914,100.759 460.5,95.5 Z"/></g>
<g><path style="opacity:1" fill="#0567ff" d="M 292.5,98.5 C 307.848,98.343 313.682,105.676 310,120.5C 275.571,161.686 240.904,202.686 206,243.5C 199.317,251.782 191.151,253.949 181.5,250C 161.667,230.167 141.833,210.333 122,190.5C 116.661,180.035 119.161,172.202 129.5,167C 133.261,166.262 136.928,166.595 140.5,168C 156.805,183.304 172.805,198.971 188.5,215C 189.167,215.667 189.833,215.667 190.5,215C 220.333,179.833 250.167,144.667 280,109.5C 283.469,104.853 287.636,101.187 292.5,98.5 Z"/></g>
</svg>
