<svg xmlns="http://www.w3.org/2000/svg" id="ac-icon-help" viewBox="0 0 16 16"><path d="M5.3108 5.66459C5.6112 4.86384 6.54349 3.75 8.00115 3.75C8.86129 3.75 9.62636 4.11263 10.1332 4.69091C10.6381 5.26693 10.9124 6.1036 10.6472 6.95208C10.5058 7.40426 10.2349 7.66683 9.95067 7.84466C9.81284 7.9309 9.67148 7.9975 9.54816 8.05457L9.52095 8.06715C9.40478 8.12084 9.30987 8.16471 9.22802 8.21408C9.0978 8.29262 9.00121 8.34723 8.92091 8.39263L8.87641 8.41783V8.66974C8.87641 8.92693 8.77326 9.13236 8.58636 9.26281C8.41407 9.38307 8.19904 9.41974 8.00115 9.41974C7.80327 9.41974 7.58823 9.38307 7.41595 9.26281C7.22905 9.13236 7.1259 8.92693 7.1259 8.66974V8.00307C7.1259 7.59061 7.35392 7.3248 7.45216 7.2235L8.13673 6.75186C8.22049 6.70377 8.29718 6.65972 8.35407 6.62541C8.43889 6.57425 8.51266 6.5318 8.57424 6.49637L8.62037 6.46978C8.69278 6.4279 8.73928 6.39977 8.77376 6.37481C8.80571 6.35168 8.81967 6.33658 8.82821 6.32483C8.83673 6.31308 8.84769 6.29385 8.86029 6.25353C8.87584 6.20378 8.87934 6.124 8.86649 6.03935C8.86189 5.99978 8.84406 5.94463 8.83571 5.922C8.67237 5.74102 8.38506 5.58333 8.00115 5.58333C7.79411 5.61249 7.29202 5.80373 6.94 6.33541C6.76589 6.79952 6.25735 7.04609 5.79511 6.84894C5.34214 6.65575 5.1392 6.122 5.3108 5.66459Z" fill="#707070"></path><path d="M9 11C9 10.4477 8.55229 10 8 10C7.44771 10 7 10.4477 7 11C7 11.5523 7.44771 12 8 12C8.55229 12 9 11.5523 9 11Z" fill="#707070"></path><path d="M16 8C16 12.4183 12.4183 16 8 16C3.58172 16 0 12.4183 0 8C0 3.58172 3.58172 0 8 0C12.4183 0 16 3.58172 16 8ZM14 8C14 4.68629 11.3137 2 8 2C4.68629 2 2 4.68629 2 8C2 11.3137 4.68629 14 8 14C11.3137 14 14 11.3137 14 8Z" fill="#707070"></path></svg>